<svg width="32" height="32" viewBox="0 0 32 32" fill="none" xmlns="http://www.w3.org/2000/svg">
<path opacity="0.4" d="M29.3223 8.02596C29.3489 8.34596 29.3223 8.67928 29.2423 9.01262L24.7489 27.0526C24.4289 28.3993 23.229 29.3326 21.8423 29.3326H4.32226C2.30892 29.3326 0.882276 27.3593 1.46895 25.426L7.08227 7.38591C7.46893 6.13257 8.62895 5.2793 9.93562 5.2793H26.3356C27.6156 5.2793 28.6556 6.03929 29.0956 7.10596C29.229 7.38596 29.2956 7.70596 29.3223 8.02596Z" fill="#6C95CC"/>
<path d="M30.657 26.16C30.7903 27.88 29.4304 29.3333 27.7104 29.3333H21.8438C23.2305 29.3333 24.4305 28.4 24.7505 27.0533L29.2437 9.01335C29.3237 8.68001 29.3503 8.34669 29.3237 8.02669L29.337 8L30.657 26.16Z" fill="#6693CF"/>
<path d="M12.9089 9.50652C12.8289 9.50652 12.7489 9.49316 12.6689 9.47983C12.1356 9.34649 11.8023 8.8132 11.9356 8.26653L13.3223 2.50652C13.4556 1.97319 13.9889 1.6532 14.5356 1.7732C15.0689 1.90654 15.4023 2.43983 15.269 2.9865L13.8823 8.74651C13.7756 9.19984 13.3623 9.50652 12.9089 9.50652Z" fill="#6693CF"/>
<path d="M21.8418 9.51974C21.7751 9.51974 21.6951 9.51971 21.6285 9.49305C21.0951 9.37305 20.7485 8.83969 20.8552 8.30636L22.1085 2.51974C22.2285 1.97307 22.7618 1.63972 23.2951 1.74638C23.8285 1.86638 24.1751 2.39974 24.0685 2.93307L22.8151 8.71969C22.7218 9.19969 22.3085 9.51974 21.8418 9.51974Z" fill="#6693CF"/>
<path d="M20.9323 17H10.2656C9.71896 17 9.26562 16.5467 9.26562 16C9.26562 15.4533 9.71896 15 10.2656 15H20.9323C21.4789 15 21.9323 15.4533 21.9323 16C21.9323 16.5467 21.4789 17 20.9323 17Z" fill="#6693CF"/>
<path d="M19.5963 22.334H8.92969C8.38302 22.334 7.92969 21.8807 7.92969 21.334C7.92969 20.7874 8.38302 20.334 8.92969 20.334H19.5963C20.143 20.334 20.5963 20.7874 20.5963 21.334C20.5963 21.8807 20.143 22.334 19.5963 22.334Z" fill="#6693CF"/>
</svg>
