<svg width="32" height="32" viewBox="0 0 32 32" fill="none" xmlns="http://www.w3.org/2000/svg">
<path opacity="0.4" d="M15.9974 29.3327C23.3612 29.3327 29.3307 23.3632 29.3307 15.9994C29.3307 8.63556 23.3612 2.66602 15.9974 2.66602C8.63359 2.66602 2.66406 8.63556 2.66406 15.9994C2.66406 23.3632 8.63359 29.3327 15.9974 29.3327Z" fill="#6C95CC"/>
<path d="M20.9501 21.2403C20.7767 21.2403 20.6034 21.2003 20.4434 21.0936L16.3101 18.627C15.2834 18.0136 14.5234 16.667 14.5234 15.4803V10.0136C14.5234 9.467 14.9767 9.01367 15.5234 9.01367C16.0701 9.01367 16.5234 9.467 16.5234 10.0136V15.4803C16.5234 15.9603 16.9234 16.667 17.3367 16.907L21.4701 19.3736C21.9501 19.6536 22.0967 20.267 21.8167 20.747C21.6167 21.067 21.2834 21.2403 20.9501 21.2403Z" fill="#6693CF"/>
</svg>
