<svg width="20" height="21" viewBox="0 0 20 21" fill="none" xmlns="http://www.w3.org/2000/svg">
<path opacity="0.4" d="M9.99739 18.8327C14.5998 18.8327 18.3307 15.1018 18.3307 10.4994C18.3307 5.89698 14.5998 2.16602 9.99739 2.16602C5.39502 2.16602 1.66406 5.89698 1.66406 10.4994C1.66406 15.1018 5.39502 18.8327 9.99739 18.8327Z" fill="#6C95CC"/>
<path d="M13.0948 13.7745C12.9864 13.7745 12.8781 13.7495 12.7781 13.6828L10.1948 12.1412C9.55312 11.7578 9.07812 10.9162 9.07812 10.1745V6.75781C9.07812 6.41614 9.36147 6.13281 9.70312 6.13281C10.0448 6.13281 10.3281 6.41614 10.3281 6.75781V10.1745C10.3281 10.4745 10.5781 10.9162 10.8364 11.0662L13.4198 12.6078C13.7198 12.7828 13.8114 13.1662 13.6364 13.4662C13.5114 13.6662 13.3031 13.7745 13.0948 13.7745Z" fill="#6693CF"/>
</svg>
