<svg width="16" height="16" viewBox="0 0 16 16" fill="none" xmlns="http://www.w3.org/2000/svg">
<path opacity="0.4" d="M10.796 1.33398H5.20928C2.78261 1.33398 1.33594 2.78065 1.33594 5.20732V10.7873C1.33594 13.2206 2.78261 14.6673 5.20928 14.6673H10.7893C13.216 14.6673 14.6626 13.2206 14.6626 10.7939V5.20732C14.6693 2.78065 13.2226 1.33398 10.796 1.33398Z" fill="#6C95CC"/>
<path d="M9.50677 8L8.5001 7.64667V5.38667H8.7401C9.2801 5.38667 9.7201 5.86 9.7201 6.44C9.7201 6.71333 9.94677 6.94 10.2201 6.94C10.4934 6.94 10.7201 6.71333 10.7201 6.44C10.7201 5.30667 9.83343 4.38667 8.7401 4.38667H8.5001V4C8.5001 3.72667 8.27344 3.5 8.0001 3.5C7.72677 3.5 7.5001 3.72667 7.5001 4V4.38667H7.06677C6.0801 4.38667 5.27344 5.22 5.27344 6.24C5.27344 7.43333 5.96677 7.81333 6.49344 8L7.5001 8.35333V10.6067H7.2601C6.7201 10.6067 6.2801 10.1333 6.2801 9.55333C6.2801 9.28 6.05344 9.05333 5.7801 9.05333C5.50677 9.05333 5.2801 9.28 5.2801 9.55333C5.2801 10.6867 6.16677 11.6067 7.2601 11.6067H7.5001V12C7.5001 12.2733 7.72677 12.5 8.0001 12.5C8.27344 12.5 8.5001 12.2733 8.5001 12V11.6133H8.93344C9.9201 11.6133 10.7267 10.78 10.7267 9.76C10.7201 8.56 10.0267 8.18 9.50677 8ZM6.82677 7.06C6.48677 6.94 6.2801 6.82667 6.2801 6.24667C6.2801 5.77333 6.63344 5.39333 7.07344 5.39333H7.50677V7.3L6.82677 7.06ZM8.93344 10.6133H8.5001V8.70667L9.17344 8.94C9.51344 9.06 9.7201 9.17333 9.7201 9.75333C9.7201 10.2267 9.36677 10.6133 8.93344 10.6133Z" fill="#6693CF"/>
</svg>
