<svg width="33" height="32" viewBox="0 0 33 32" fill="none" xmlns="http://www.w3.org/2000/svg">
<path d="M25.8333 20C22.8867 20 20.5 22.3867 20.5 25.3333C20.5 26.3333 20.78 27.28 21.2734 28.08C22.1934 29.6267 23.8867 30.6667 25.8333 30.6667C27.78 30.6667 29.4733 29.6267 30.3933 28.08C30.8866 27.28 31.1667 26.3333 31.1667 25.3333C31.1667 22.3867 28.78 20 25.8333 20ZM28.5933 24.76L25.7533 27.3867C25.5667 27.56 25.3133 27.6533 25.0733 27.6533C24.82 27.6533 24.5667 27.56 24.3667 27.36L23.0466 26.04C22.66 25.6533 22.66 25.0133 23.0466 24.6267C23.4333 24.24 24.0733 24.24 24.46 24.6267L25.1 25.2667L27.2333 23.2933C27.6333 22.92 28.2733 22.9467 28.6466 23.3467C29.02 23.7467 28.9933 24.3733 28.5933 24.76Z" fill="#6693CF"/>
<path d="M29.8307 10.0532V11.9999H3.16406V10.0532C3.16406 6.99986 5.64409 4.5332 8.69743 4.5332H24.2974C27.3507 4.5332 29.8307 6.99986 29.8307 10.0532Z" fill="#6693CF"/>
<path opacity="0.4" d="M3.16406 12V21.9467C3.16406 25 5.63075 27.4667 8.68408 27.4667H17.0308C17.8041 27.4667 18.4707 26.8133 18.4041 26.04C18.2174 24 18.8708 21.7867 20.6841 20.0267C21.4308 19.2933 22.3508 18.7333 23.3508 18.4133C25.0174 17.88 26.6307 17.9467 28.0574 18.4267C28.924 18.72 29.8307 18.0933 29.8307 17.1733V12H3.16406ZM11.1641 23H8.4974C7.95073 23 7.4974 22.5467 7.4974 22C7.4974 21.4533 7.95073 21 8.4974 21H11.1641C11.7107 21 12.1641 21.4533 12.1641 22C12.1641 22.5467 11.7107 23 11.1641 23Z" fill="#6C95CC"/>
<path d="M12.1667 22C12.1667 22.5467 11.7133 23 11.1667 23H8.5C7.95333 23 7.5 22.5467 7.5 22C7.5 21.4533 7.95333 21 8.5 21H11.1667C11.7133 21 12.1667 21.4533 12.1667 22Z" fill="#6693CF"/>
</svg>
