<svg width="20" height="21" viewBox="0 0 20 21" fill="none" xmlns="http://www.w3.org/2000/svg">
<path opacity="0.4" d="M18.3274 5.51744C18.344 5.71744 18.3274 5.92577 18.2774 6.1341L15.4691 17.4091C15.2691 18.2508 14.5191 18.8341 13.6524 18.8341H2.70239C1.44405 18.8341 0.5524 17.6008 0.919067 16.3925L4.42739 5.11741C4.66906 4.33408 5.39407 3.80078 6.21074 3.80078H16.4607C17.2607 3.80078 17.9107 4.27577 18.1857 4.94244C18.2691 5.11744 18.3107 5.31744 18.3274 5.51744Z" fill="#6C95CC"/>
<path d="M19.1567 16.85C19.24 17.925 18.3901 18.8333 17.3151 18.8333H13.6484C14.5151 18.8333 15.2651 18.25 15.4651 17.4083L18.2734 6.13334C18.3234 5.92501 18.34 5.71668 18.3234 5.51668L18.3317 5.5L19.1567 16.85Z" fill="#6693CF"/>
<path d="M8.06419 6.44085C8.01419 6.44085 7.9642 6.4325 7.9142 6.42416C7.58087 6.34083 7.37254 6.00752 7.45588 5.66585L8.32253 2.06585C8.40586 1.73251 8.7392 1.53252 9.08086 1.60752C9.4142 1.69086 9.62254 2.02417 9.53921 2.36583L8.67254 5.96584C8.60587 6.24917 8.34753 6.44085 8.06419 6.44085Z" fill="#6693CF"/>
<path d="M13.6521 6.45081C13.6104 6.45081 13.5604 6.45079 13.5188 6.43412C13.1854 6.35912 12.9688 6.02578 13.0355 5.69245L13.8188 2.07581C13.8938 1.73414 14.2271 1.52579 14.5604 1.59246C14.8938 1.66746 15.1104 2.00081 15.0438 2.33414L14.2604 5.95078C14.2021 6.25078 13.9438 6.45081 13.6521 6.45081Z" fill="#6693CF"/>
<path d="M13.0808 11.125H6.41406C6.07239 11.125 5.78906 10.8417 5.78906 10.5C5.78906 10.1583 6.07239 9.875 6.41406 9.875H13.0808C13.4224 9.875 13.7058 10.1583 13.7058 10.5C13.7058 10.8417 13.4224 11.125 13.0808 11.125Z" fill="#6693CF"/>
<path d="M12.2526 14.459H5.58594C5.24428 14.459 4.96094 14.1757 4.96094 13.834C4.96094 13.4924 5.24428 13.209 5.58594 13.209H12.2526C12.5943 13.209 12.8776 13.4924 12.8776 13.834C12.8776 14.1757 12.5943 14.459 12.2526 14.459Z" fill="#6693CF"/>
</svg>
