<svg width="32" height="32" viewBox="0 0 32 32" fill="none" xmlns="http://www.w3.org/2000/svg">
<g clip-path="url(#clip0_931_17632)">
<path d="M32 16C32 7.16344 24.8366 0 16 0C7.16344 0 0 7.16344 0 16C0 24.8366 7.16344 32 16 32C24.8366 32 32 24.8366 32 16Z" fill="#6693CF"/>
<path d="M22.049 11.4873C20.9757 11.3806 19.9023 11.3006 18.8223 11.2406V11.2339L18.6757 10.3673C18.5757 9.75398 18.429 8.83398 16.869 8.83398H15.1223C13.569 8.83398 13.4223 9.71398 13.3157 10.3606L13.1757 11.2139C12.5557 11.2539 11.9357 11.2939 11.3157 11.3539L9.95572 11.4873C9.67572 11.5139 9.47572 11.7606 9.50238 12.0339C9.52905 12.3073 9.76905 12.5073 10.049 12.4806L11.409 12.3473C14.9023 12.0006 18.4223 12.1339 21.9557 12.4873C21.9757 12.4873 21.989 12.4873 22.009 12.4873C22.2623 12.4873 22.4823 12.2939 22.509 12.0339C22.529 11.7606 22.329 11.5139 22.049 11.4873Z" fill="white"/>
<path opacity="0.3991" d="M20.8211 13.426C20.6611 13.2593 20.4411 13.166 20.2145 13.166H11.7878C11.5611 13.166 11.3345 13.2593 11.1811 13.426C11.0278 13.5926 10.9411 13.8193 10.9545 14.0526L11.3678 20.8926C11.4411 21.906 11.5345 23.1726 13.8611 23.1726H18.1411C20.4678 23.1726 20.5611 21.9126 20.6345 20.8926L21.0478 14.0593C21.0611 13.8193 20.9745 13.5926 20.8211 13.426Z" fill="white"/>
<path fill-rule="evenodd" clip-rule="evenodd" d="M14.3828 19.334C14.3828 19.0579 14.6067 18.834 14.8828 18.834H17.1028C17.379 18.834 17.6028 19.0579 17.6028 19.334C17.6028 19.6102 17.379 19.834 17.1028 19.834H14.8828C14.6067 19.834 14.3828 19.6102 14.3828 19.334Z" fill="white"/>
<path fill-rule="evenodd" clip-rule="evenodd" d="M13.8359 16.666C13.8359 16.3898 14.0597 16.166 14.3359 16.166H17.6692C17.9454 16.166 18.1692 16.3898 18.1692 16.666C18.1692 16.9421 17.9454 17.166 17.6692 17.166H14.3359C14.0597 17.166 13.8359 16.9421 13.8359 16.666Z" fill="white"/>
</g>
<defs>
<clipPath id="clip0_931_17632">
<rect width="32" height="32" fill="white"/>
</clipPath>
</defs>
</svg>
