<svg width="33" height="32" viewBox="0 0 33 32" fill="none" xmlns="http://www.w3.org/2000/svg">
<path d="M9.83594 7.66602C9.28928 7.66602 8.83594 7.21269 8.83594 6.66602V2.66602C8.83594 2.11936 9.28928 1.66602 9.83594 1.66602C10.3826 1.66602 10.8359 2.11936 10.8359 2.66602V6.66602C10.8359 7.21269 10.3826 7.66602 9.83594 7.66602Z" fill="#6693CF"/>
<path d="M20.5 7.66602C19.9533 7.66602 19.5 7.21269 19.5 6.66602V2.66602C19.5 2.11936 19.9533 1.66602 20.5 1.66602C21.0467 1.66602 21.5 2.11936 21.5 2.66602V6.66602C21.5 7.21269 21.0467 7.66602 20.5 7.66602Z" fill="#6693CF"/>
<path opacity="0.4" d="M27.1641 11.3327V22.6661C27.1641 26.6661 25.1641 29.3327 20.4974 29.3327H9.83072C5.16406 29.3327 3.16406 26.6661 3.16406 22.6661V11.3327C3.16406 7.33269 5.16406 4.66602 9.83072 4.66602H20.4974C25.1641 4.66602 27.1641 7.33269 27.1641 11.3327Z" fill="#6C95CC"/>
<path d="M17.8359 15.666H9.83594C9.28928 15.666 8.83594 15.2126 8.83594 14.666C8.83594 14.1193 9.28928 13.666 9.83594 13.666H17.8359C18.3826 13.666 18.8359 14.1193 18.8359 14.666C18.8359 15.2126 18.3826 15.666 17.8359 15.666Z" fill="#6693CF"/>
<path d="M13.8359 22.334H9.83594C9.28928 22.334 8.83594 21.8807 8.83594 21.334C8.83594 20.7874 9.28928 20.334 9.83594 20.334H13.8359C14.3826 20.334 14.8359 20.7874 14.8359 21.334C14.8359 21.8807 14.3826 22.334 13.8359 22.334Z" fill="#6693CF"/>
<path d="M28.4974 18.1726C27.3108 17.226 25.8041 16.666 24.1641 16.666C22.5241 16.666 20.9908 17.2393 19.7908 18.2126C18.1774 19.4793 17.1641 21.466 17.1641 23.666C17.1641 24.9726 17.5374 26.226 18.1774 27.266C18.6708 28.0793 19.3107 28.786 20.0707 29.3326C21.2174 30.1726 22.6308 30.666 24.1641 30.666C25.9374 30.666 27.5374 30.0126 28.7641 28.9193C29.3108 28.466 29.7774 27.906 30.1507 27.266C30.7907 26.226 31.1641 24.9726 31.1641 23.666C31.1641 21.4393 30.1241 19.4526 28.4974 18.1726ZM24.1641 26.9993C24.1641 25.1593 22.6708 23.666 20.8308 23.666C22.6708 23.666 24.1641 22.1726 24.1641 20.3326C24.1641 22.1726 25.6574 23.666 27.4974 23.666C25.6574 23.666 24.1641 25.1593 24.1641 26.9993Z" fill="#6693CF"/>
</svg>
